<?xml version="1.0" encoding="UTF-8" standalone="no"?>
<svg xmlns:sketch="http://www.bohemiancoding.com/sketch/ns" xmlns="http://www.w3.org/2000/svg" height="60px" width="60px" version="1.1" xmlns:xlink="http://www.w3.org/1999/xlink" viewBox="0 0 60 60">
 <title/>
 <desc/>
 <g id="soical" fill-rule="evenodd" fill="none">
  <g id="social" transform="translate(-273 -138)">
   <g id="square-flat" transform="translate(173 138)" fill="#346DA6">
    <path id="square-2" d="m103 0h54c1.66 0 3 1.3373 3 2.9959v54.008c0 1.655-1.34 2.996-3 2.996h-54c-1.66 0-3-1.337-3-2.996v-54.008c0-1.6547 1.34-2.996 3-2.996z"/>
   </g>
   <g id="icon" transform="translate(182 150)" fill="#fff">
    <path id="facebook" d="m116.46 35.314v-17.315h-3.52v-5.74h3.52v-3.4706c0-4.6818 1.4-8.0578 6.53-8.0578l6.1 0.00002v5.7278h-4.3c-2.15 0-2.64 1.429-2.64 2.9254v2.8752h6.62l-0.9 5.74h-5.72v17.315h-5.69z"/>
   </g>
  </g>
 </g>
</svg>
