<?xml version="1.0" encoding="UTF-8" standalone="no"?>
<svg xmlns:sketch="http://www.bohemiancoding.com/sketch/ns" xmlns="http://www.w3.org/2000/svg" height="60px" width="60px" version="1.1" xmlns:xlink="http://www.w3.org/1999/xlink" viewBox="0 0 60 60">
 <title/>
 <desc/>
 <g id="soical" fill-rule="evenodd" fill="none">
  <g id="social" transform="translate(-873 -638)">
   <g id="square-flat" transform="translate(173 138)" fill="#3498DB">
    <path id="square-58" d="m703 500h54c1.66 0 3 1.34 3 3v54c0 1.66-1.34 3-3 3h-54c-1.66 0-3-1.34-3-3v-54c0-1.66 1.34-3 3-3z"/>
   </g>
   <g id="icon" transform="translate(182 150)" fill="#fff">
    <path id="mail" d="m721 521.46l17.31-15h-34.62l17.31 15zm-4.67-1.66l4.67 3.84 4.6-3.84 12.71 10.89h-34.62l12.64-10.89zm-13.79 9.74v-21.92l12.69 10.96-12.69 10.96zm36.92 0v-21.92l-12.69 10.96 12.69 10.96z"/>
   </g>
  </g>
 </g>
</svg>
