<?xml version="1.0" encoding="UTF-8" standalone="no"?>
<svg xmlns:sketch="http://www.bohemiancoding.com/sketch/ns" xmlns="http://www.w3.org/2000/svg" height="60px" width="60px" version="1.1" xmlns:xlink="http://www.w3.org/1999/xlink" viewBox="0 0 60 60">
 <title/>
 <desc/>
 <g id="soical" fill-rule="evenodd" fill="none">
  <g id="social" transform="translate(-173 -138)">
   <g id="square-flat" transform="translate(173 138)" fill="#4186CD">
    <path id="square" d="m2.9959 0h54.008c1.655 0 2.996 1.3373 2.996 2.9959v54.008c0 1.655-1.337 2.996-2.996 2.996h-54.008c-1.6547 0-2.996-1.337-2.996-2.996v-54.008c0-1.6547 1.3373-2.996 2.9959-2.996z"/>
   </g>
   <g id="icon" transform="translate(182 150)" fill="#fff">
    <path id="twitter" d="m32.052 6.4367c-1.209-1.3745-2.931-2.2502-4.838-2.282-3.66-0.0609-6.628 3.0322-6.628 6.9083 0 0.55 0.058 1.087 0.171 1.602-5.508-0.358-10.393-3.2262-13.662-7.5503-0.5701 1.0362-0.8971 2.2472-0.8971 3.5445 0 2.4558 1.1702 4.6358 2.9487 5.9218-1.0865-0.048-2.1085-0.376-3.0022-0.916-0.0006 0.029-0.0006 0.059-0.0006 0.089 0 3.43 2.2848 6.307 5.3172 6.977-0.556 0.158-1.142 0.24-1.7464 0.236-0.4271-0.003-0.8424-0.05-1.2471-0.135 0.8434 2.812 3.2915 4.865 6.1915 4.933-2.268 1.883-5.1261 3.004-8.2317 2.998-0.535-0.001-1.0626-0.036-1.5811-0.102 2.9333 2.012 6.4178 3.184 10.161 3.185 12.192 0.003 18.859-10.606 18.859-19.809 0-0.302-0.007-0.602-0.019-0.901 1.295-0.965 2.418-2.1752 3.307-3.5568-1.189 0.5358-2.466 0.8917-3.807 1.0409 1.368-0.8421 2.42-2.19 2.914-3.8063-1.28 0.7767-2.699 1.3337-4.209 1.6229z"/>
   </g>
  </g>
 </g>
</svg>
